<svg xmlns="http://www.w3.org/2000/svg" width="14.97" height="28.5" viewBox="0 0 14.97 28.5"><defs><style>.cls-1{fill-rule:evenodd;opacity:.68}</style></defs><path id="ARROW_LEFT" data-name="ARROW / LEFT" class="cls-1" d="M1486.67 481.919l9.82-10.666-9.95-10.805a2.145 2.145 0 0 1-.52-1.413 1.96 1.96 0 0 1 1.87-2.035 1.786 1.786 0 0 1 1.3.571l11.25 12.214a2.131 2.131 0 0 1 .57 1.466v.008a2.131 2.131 0 0 1-.57 1.466l-11.25 12.215v-.006a1.811 1.811 0 0 1-1.3.567 1.96 1.96 0 0 1-1.87-2.036 2.1 2.1 0 0 1 .65-1.546z" transform="translate(-1486.03 -457)"/></svg>