<svg xmlns="http://www.w3.org/2000/svg" width="15" height="28.5" viewBox="0 0 15 28.5"><defs><style>.cls-1{fill:#fff;fill-rule:evenodd;opacity:.31}</style></defs><path id="ARROW_LEFT" data-name="ARROW / LEFT" class="cls-1" d="M113.348 462.08l-9.825 10.666 9.953 10.805a2.123 2.123 0 0 1 .525 1.413 1.96 1.96 0 0 1-1.875 2.036 1.791 1.791 0 0 1-1.3-.571l-11.25-12.214A2.115 2.115 0 0 1 99 472.75v-.009a2.118 2.118 0 0 1 .574-1.465l11.25-12.215a1.8 1.8 0 0 1 1.3-.565 1.959 1.959 0 0 1 1.876 2.04 2.106 2.106 0 0 1-.652 1.544z" transform="translate(-99 -458.5)"/></svg>