<svg xmlns="http://www.w3.org/2000/svg" width="15" height="28.5" viewBox="0 0 15 28.5"><defs><style>.cls-1{fill-rule:evenodd;opacity:.68}</style></defs><path id="ARROW_LEFT" data-name="ARROW / LEFT" class="cls-1" d="M1500.37 460.584l-9.83 10.661 9.94 10.81a2.1 2.1 0 0 1 .53 1.412 1.961 1.961 0 0 1-1.88 2.035 1.8 1.8 0 0 1-1.3-.572l-11.24-12.22a2.131 2.131 0 0 1-.57-1.466v-.008a2.1 2.1 0 0 1 .58-1.466l11.25-12.209v.006a1.793 1.793 0 0 1 1.3-.566 1.961 1.961 0 0 1 1.87 2.037 2.1 2.1 0 0 1-.65 1.546z" transform="translate(-1486.03 -457)"/></svg>