<svg xmlns="http://www.w3.org/2000/svg" width="76.781" height="76.78" viewBox="0 0 76.781 76.78"><defs><style>.svg-path{fill:#3f444a;fill-rule:evenodd}</style></defs><path id="PILL" class="svg-path" d="M769.668 1833l-.965-.97a23.884 23.884 0 0 1 0-33.79l28.011-28a23.9 23.9 0 0 1 33.808 0l.966.96a23.9 23.9 0 0 1 0 33.8l-28.012 28a23.916 23.916 0 0 1-33.808 0zm42.018-19.8l-23.186-23.17-14.006 14a15.7 15.7 0 0 0 0 22.21l.966.96a15.7 15.7 0 0 0 22.216 0z" transform="translate(-761.719 -1763.25)"/></svg>