<svg xmlns="http://www.w3.org/2000/svg" width="15" height="28.5" viewBox="0 0 15 28.5">
  <metadata><?xpacket begin="﻿" id="W5M0MpCehiHzreSzNTczkc9d"?>
<x:xmpmeta xmlns:x="adobe:ns:meta/" x:xmptk="Adobe XMP Core 5.6-c138 79.159824, 2016/09/14-01:09:01        ">
   <rdf:RDF xmlns:rdf="http://www.w3.org/1999/02/22-rdf-syntax-ns#">
      <rdf:Description rdf:about=""/>
   </rdf:RDF>
</x:xmpmeta>
                                                                                                    
                                                                                                    
                                                                                                    
                                                                                                    
                                                                                                    
                                                                                                    
                                                                                                    
                                                                                                    
                                                                                                    
                                                                                                    
                                                                                                    
                                                                                                    
                                                                                                    
                                                                                                    
                                                                                                    
                                                                                                    
                                                                                                    
                                                                                                    
                                                                                                    
                                                                                                    
                           
<?xpacket end="w"?></metadata>
<defs>
    <style>
      .cls-1 {
        fill-rule: evenodd;
        opacity: 0.68;
      }
    </style>
  </defs>
  <path id="ARROW_LEFT" data-name="ARROW / LEFT" class="cls-1" d="M1500.37,460.584l-9.83,10.661,9.94,10.81v0a2.1,2.1,0,0,1,.53,1.412,1.961,1.961,0,0,1-1.88,2.035,1.8,1.8,0,0,1-1.3-.572h0l-11.24-12.22h0a2.131,2.131,0,0,1-.57-1.466v-0.008a2.1,2.1,0,0,1,.58-1.466h0l11.25-12.209v0.006a1.793,1.793,0,0,1,1.3-.566,1.961,1.961,0,0,1,1.87,2.037A2.1,2.1,0,0,1,1500.37,460.584Z" transform="translate(-1486.03 -457)"/>
</svg>
