<svg xmlns="http://www.w3.org/2000/svg" xmlns:xlink="http://www.w3.org/1999/xlink" width="11.407" height="11.31" viewBox="0 0 11.407 11.31">
  <metadata><?xpacket begin="﻿" id="W5M0MpCehiHzreSzNTczkc9d"?>
<x:xmpmeta xmlns:x="adobe:ns:meta/" x:xmptk="Adobe XMP Core 5.6-c138 79.159824, 2016/09/14-01:09:01        ">
   <rdf:RDF xmlns:rdf="http://www.w3.org/1999/02/22-rdf-syntax-ns#">
      <rdf:Description rdf:about=""/>
   </rdf:RDF>
</x:xmpmeta>





















<?xpacket end="w"?></metadata>
  <path id="link" fill="#ffffff" d="M439.85,5301.81l7.184,7.11s-1.065.54-1.395,0.21l-5.987-5.93C439.322,5302.87,439.85,5301.81,439.85,5301.81Zm0.594-2.99a0.846,0.846,0,0,1,1.2-.01l3.193,3.16a0.846,0.846,0,1,1-1.194,1.2l-3.193-3.16A0.839,0.839,0,0,1,440.444,5298.82Zm5.189,5.14a0.837,0.837,0,0,1,1.2-.01l3.192,3.16a0.846,0.846,0,0,1-1.194,1.2l-3.193-3.16A0.838,0.838,0,0,1,445.633,5303.96Zm-2.2-5.76s1.064-.54,1.395-0.21l5.986,5.93c0.331,0.33-.2,1.39-0.2,1.39Z" transform="translate(-439.531 -5297.91)"/>
</svg>
