<svg xmlns="http://www.w3.org/2000/svg" width="64.78" height="64.74" viewBox="0 0 64.78 64.74">
  <metadata><?xpacket begin="﻿" id="W5M0MpCehiHzreSzNTczkc9d"?>
<x:xmpmeta xmlns:x="adobe:ns:meta/" x:xmptk="Adobe XMP Core 5.6-c138 79.159824, 2016/09/14-01:09:01        ">
   <rdf:RDF xmlns:rdf="http://www.w3.org/1999/02/22-rdf-syntax-ns#">
      <rdf:Description rdf:about=""/>
   </rdf:RDF>
</x:xmpmeta>





















<?xpacket end="w"?></metadata>
  <path id="PLUG" fill="#3f444a" d="M1206.8,1818.58a23.747,23.747,0,0,1-31.01,2.21l-13.63,13.62a4.066,4.066,0,0,1-5.75-5.75l13.62-13.62a23.734,23.734,0,0,1,2.21-31l8.16-8.15,5.76,5.76,9.6-9.6a4.073,4.073,0,0,1,5.76,5.76l-9.6,9.59,11.52,11.51,9.6-9.59a4.069,4.069,0,1,1,5.75,5.76l-9.59,9.59,5.75,5.76Z" transform="translate(-1155.22 -1770.88)"/>
</svg>
