<svg xmlns="http://www.w3.org/2000/svg" xmlns:xlink="http://www.w3.org/1999/xlink" width="11.375" height="11.25" viewBox="0 0 11.375 11.25">
  <metadata><?xpacket begin="﻿" id="W5M0MpCehiHzreSzNTczkc9d"?>
<x:xmpmeta xmlns:x="adobe:ns:meta/" x:xmptk="Adobe XMP Core 5.6-c138 79.159824, 2016/09/14-01:09:01        ">
   <rdf:RDF xmlns:rdf="http://www.w3.org/1999/02/22-rdf-syntax-ns#">
      <rdf:Description rdf:about=""/>
   </rdf:RDF>
</x:xmpmeta>





















<?xpacket end="w"?></metadata>
  <path id="zoom" fill="#ffffff" d="M405.5,5308.4l-0.277.27a0.809,0.809,0,0,1-1.1,0l-2.211-2.13a0.73,0.73,0,0,1-.11-0.91l-1.208-1.16a4.013,4.013,0,0,1-2.323.74,3.772,3.772,0,1,1,3.907-3.77,3.686,3.686,0,0,1-1,2.52l1.182,1.14a0.8,0.8,0,0,1,.939.1l2.21,2.14A0.728,0.728,0,0,1,405.5,5308.4Zm-4.311-6.98a2.875,2.875,0,0,0-2.93-2.82,2.917,2.917,0,0,0-1.254.28c0.2,0.2.512,0.5,0.528,0.5a2.732,2.732,0,0,0-1.357,1.34c0-.02-0.331-0.32-0.547-0.52a2.7,2.7,0,0,0-.3,1.22A2.932,2.932,0,0,0,401.191,5301.42Z" transform="translate(-394.375 -5297.66)"/>
</svg>
